<svg width="800" height="600" viewBox="0 0 800 600" fill="none" xmlns="http://www.w3.org/2000/svg">
  <rect width="800" height="600" rx="8" fill="#F8FAFC"/>
  
  <!-- Header section -->
  <rect x="40" y="40" width="720" height="80" rx="4" fill="#EFF6FF"/>
  <rect x="60" y="60" width="240" height="20" rx="2" fill="#1D4ED8"/>
  <rect x="60" y="90" width="180" height="10" rx="2" fill="#94A3B8"/>
  
  <!-- Content sections -->
  <rect x="40" y="140" width="720" height="60" rx="4" fill="white"/>
  <rect x="60" y="155" width="160" height="15" rx="2" fill="#334155"/>
  <rect x="60" y="175" width="680" height="10" rx="2" fill="#94A3B8"/>
  
  <rect x="40" y="220" width="720" height="100" rx="4" fill="white"/>
  <rect x="60" y="235" width="180" height="15" rx="2" fill="#334155"/>
  <rect x="60" y="260" width="680" height="10" rx="2" fill="#94A3B8"/>
  <rect x="60" y="280" width="650" height="10" rx="2" fill="#94A3B8"/>
  <rect x="60" y="300" width="670" height="10" rx="2" fill="#94A3B8"/>
  
  <rect x="40" y="340" width="720" height="100" rx="4" fill="white"/>
  <rect x="60" y="355" width="200" height="15" rx="2" fill="#334155"/>
  <rect x="60" y="380" width="680" height="10" rx="2" fill="#94A3B8"/>
  <rect x="60" y="400" width="660" height="10" rx="2" fill="#94A3B8"/>
  <rect x="60" y="420" width="640" height="10" rx="2" fill="#94A3B8"/>
  
  <!-- Score indicator -->
  <circle cx="700" cy="80" r="40" fill="#E2E8F0"/>
  <circle cx="700" cy="80" r="35" fill="white"/>
  <path d="M700 45 A35 35 0 0 1 735 80 L700 80 Z" fill="#1D4ED8"/>
  <path d="M700 45 A35 35 0 0 0 665 80 L700 80 Z" fill="#38BDF8"/>
  <text x="700" y="85" font-family="Arial" font-size="16" font-weight="bold" text-anchor="middle" fill="#1E293B">75%</text>
  
  <!-- Feedback section -->
  <rect x="40" y="460" width="720" height="100" rx="4" fill="#EFF6FF"/>
  <rect x="60" y="475" width="220" height="15" rx="2" fill="#1D4ED8"/>
  <rect x="60" y="500" width="680" height="10" rx="2" fill="#94A3B8"/>
  <rect x="60" y="520" width="650" height="10" rx="2" fill="#94A3B8"/>
  <rect x="60" y="540" width="670" height="10" rx="2" fill="#94A3B8"/>
</svg> 